# xmcd CD database file
# Copyright (C) 1993-1996 Ti Kan
#
# Track frame offsets:
#	150
#	11983
#	22383
#	33198
#	45590
#	55235
#	67090
#	76725
#	90078
#	102678
#	115590
#	128350
#	139155
#	150898
#	158718
#	171933
#	183583
#
# Disc length: 2606 seconds
#
# Revision: 1
# Processed by: cddbd v1.4b41PL1 Copyright (c) Steve Scherf et al.
# Submitted via: CDValet v3.01 - Copyright (c) 1997 Greg Leichner
#
DISCID=d30a2c11
DTITLE=The Everly Brothers - All They Had to Do was Dream
DYEAR=1900
DGENRE=
TTITLE0=Leave My Woman Alone
TTITLE1=Hey, Doll Baby
TTITLE2=I Wonder If I Care As Much
TTITLE3=Wake Up Little Susie
TTITLE4=Maybe Tomorrow
TTITLE5=All I Have To Do Is Dream
TTITLE6=Like Strangers
TTITLE7=Poor Jenny
TTITLE8=Oh True Love
TTITLE9=('Til) I Kissed You
TTITLE10=Love Of My Life
TTITLE11=Love Of My Life (2nd Version)
TTITLE12=When Will I Be Loved
TTITLE13=Should We Tell Him
TTITLE14=Kentucky
TTITLE15=Problems
TTITLE16=Let It Be Me
EXTD=Rhino Records Reissue of first-generation master tapes of Everly Brothers
EXTD=first studio sessions for Cadence Records, produced by Archie Blyer, wit
EXTD=h Chet Atkins on guitar, Floyd Cramer on piano.
EXTT0=
EXTT1=
EXTT2=
EXTT3=
EXTT4=
EXTT5=
EXTT6=
EXTT7=
EXTT8=
EXTT9=
EXTT10=
EXTT11=
EXTT12=
EXTT13=
EXTT14=
EXTT15=
EXTT16=
PLAYORDER=
